PathFileType	4	(X/Y/Z)	C:/Users/opensim2020/Desktop/walking_exp_matlab/subject03_walking13_straight_03.trc	
DataRate	CameraRate	NumFrames	NumMarkers	Units	OrigDataRate	OrigDataStartFrame	OrigNumFrames	
100.00	100.00	4	46	mm	100.00	1757	209	
Frame#	Time	LFHD			RFHD			LBHD			RBHD			C7			T10			CLAV			STRN			RBAK			LSHO			LUPA			LELB			LFRM			LWRA			LWRB			LFIN			RSHO			RUPA			RELB			RFRM			RWRA			RWRB			RFIN			LASI			RASI			LPSI			RPSI			LTHI			LKNE			LTIB			LANK			LHEE			LTOE			RTHI			RKNE			RTIB			RANK			RHEE			RTOE			*39			*40			*41			*42			*43			*44			*45			
		X1	Y1	Z1	X2	Y2	Z2	X3	Y3	Z3	X4	Y4	Z4	X5	Y5	Z5	X6	Y6	Z6	X7	Y7	Z7	X8	Y8	Z8	X9	Y9	Z9	X10	Y10	Z10	X11	Y11	Z11	X12	Y12	Z12	X13	Y13	Z13	X14	Y14	Z14	X15	Y15	Z15	X16	Y16	Z16	X17	Y17	Z17	X18	Y18	Z18	X19	Y19	Z19	X20	Y20	Z20	X21	Y21	Z21	X22	Y22	Z22	X23	Y23	Z23	X24	Y24	Z24	X25	Y25	Z25	X26	Y26	Z26	X27	Y27	Z27	X28	Y28	Z28	X29	Y29	Z29	X30	Y30	Z30	X31	Y31	Z31	X32	Y32	Z32	X33	Y33	Z33	X34	Y34	Z34	X35	Y35	Z35	X36	Y36	Z36	X37	Y37	Z37	X38	Y38	Z38	X39	Y39	Z39	X40	Y40	Z40	X41	Y41	Z41	X42	Y42	Z42	X43	Y43	Z43	X44	Y44	Z44	X45	Y45	Z45	X46	Y46	Z46	

131	1.300	-1032.01489	422.67780	1631.96729	-900.67889	401.72693	1627.76904	-1049.80396	303.29813	1572.04688	-920.33313	287.63434	1567.93982	-985.24030	280.30197	1414.48364	-985.55530	250.80374	1103.67126	-991.48511	403.71298	1340.78516	-999.15094	449.45618	1176.09351	-883.31873	238.24004	1242.06042	-1144.32996	344.65805	1377.50195	-1212.68274	322.50342	1179.21106	-1221.95776	328.30243	1055.43164	-1219.65308	358.64313	928.43317	-1187.64551	386.07907	813.44861	-1234.88562	356.98712	814.33374	-1225.88525	381.02606	734.53790	-829.58069	370.20990	1365.56238	-750.69354	396.02921	1148.01733	-735.35620	426.32224	1039.67908	-734.53027	467.11423	908.96033	-774.22314	508.27072	818.72131	-725.57941	485.69559	810.54443	-738.12976	519.06268	744.34607	-1103.52209	417.29410	938.79382	-866.86676	417.11029	942.12756	-1054.51660	255.62454	958.28479	-905.29346	257.22861	975.59534	-1153.68677	442.95520	646.12616	-1121.18103	508.58417	481.00583	-1121.05957	466.60434	285.56473	-1081.17505	452.00867	76.38553	-1041.72534	410.76431	41.64484	-1060.64380	596.01422	41.30051	-831.98444	333.43710	647.45728	-872.24866	318.45032	469.88550	-873.35010	243.33054	291.09927	-927.92926	182.50166	83.71824	-977.69403	133.39359	60.07215	-952.21735	319.06189	30.30487	-993.89905	325.87909	1675.66150																		 
132	1.310	-1032.50525	436.04779	1630.24329	-901.10040	415.10037	1626.55664	-1050.06177	316.59396	1570.32068	-920.58282	300.94879	1566.65991	-985.33392	293.48776	1413.00879	-986.33344	263.92224	1102.10486	-991.13245	416.94196	1339.17126	-998.23566	462.55566	1174.48816	-883.51099	251.33467	1240.43848	-1144.37268	358.74377	1375.55884	-1212.14075	334.73584	1176.89294	-1221.74866	338.65570	1053.22375	-1220.05615	364.33713	925.15198	-1188.86658	386.59723	808.76953	-1236.57935	358.24084	811.26746	-1227.71948	378.44202	730.29437	-829.33264	382.92734	1364.15662	-748.78729	411.28622	1147.67493	-733.15430	444.16360	1040.26550	-732.79266	489.36609	911.04736	-772.72357	533.98822	822.73486	-724.38177	511.37686	813.25275	-737.13177	547.31293	748.53900	-1102.49768	432.12338	937.26526	-865.87341	428.52399	940.37622	-1055.82544	269.68271	956.89429	-906.62445	269.19678	973.91766	-1153.43787	457.93707	644.93384	-1119.90503	523.23199	480.07144	-1120.61548	492.85400	283.23886	-1081.91528	492.82239	73.04774	-1042.21240	454.11688	36.64134	-1059.91797	639.33704	43.88943	-832.00793	341.01941	646.67255	-872.18781	324.03851	469.19781	-873.84497	246.40137	291.41290	-928.61877	183.00710	84.79462	-978.69653	133.93785	61.60571	-951.92102	319.35443	30.37971	-994.62988	339.22861	1674.17468																		 
133	1.320	-1032.95789	449.39328	1628.34729	-901.54578	428.41721	1625.12561	-1050.32800	329.98703	1568.36548	-920.87646	314.21887	1565.19910	-985.42639	306.76501	1411.37476	-987.24878	277.16849	1100.34509	-990.72565	430.21698	1337.33508	-997.30157	475.77304	1172.68982	-883.70807	264.36649	1238.67004	-1144.39966	372.97012	1373.37280	-1212.02490	347.29535	1174.56152	-1221.62268	348.93033	1050.87219	-1220.49683	370.17099	921.87592	-1190.11194	387.40405	804.66443	-1238.28491	359.77475	808.50934	-1229.37231	375.90375	726.32977	-829.12079	395.70953	1362.48438	-747.06622	426.43149	1147.00488	-731.01904	461.81696	1040.58447	-731.04785	511.45590	913.00146	-771.38202	559.26062	826.71783	-723.38599	536.74591	815.96857	-736.42065	574.97931	752.86432	-1101.45825	447.14236	935.46228	-865.00897	440.22263	938.56165	-1057.27588	283.74597	955.20587	-908.05658	281.17160	971.96283	-1153.04260	472.09915	643.02075	-1118.49377	537.53430	478.60983	-1120.07080	518.03632	281.40204	-1082.68457	532.52307	71.26916	-1042.92468	496.05005	33.53273	-1059.46924	681.11420	47.81754	-832.05426	349.01154	645.76025	-872.38068	330.06461	468.37717	-874.32294	249.76419	291.70264	-929.56335	183.70985	85.90470	-979.82098	134.60316	63.19443	-952.01563	319.43787	30.32856	-995.20172	352.52960	1672.39734																		 
134	1.330	-1033.42114	462.72818	1626.30261	-901.98822	441.77237	1623.53699	-1050.52515	343.33041	1566.15747	-921.04980	327.63309	1563.51880	-985.61530	320.20459	1409.46191	-988.22589	290.45752	1098.46912	-990.30518	443.59555	1335.33777	-996.30457	489.00922	1170.63232	-883.97729	277.34283	1236.75647	-1144.48425	387.39096	1371.00757	-1211.85986	359.97900	1172.06091	-1221.54871	359.17831	1048.43909	-1221.03430	376.00665	918.74524	-1191.13574	388.18549	800.60864	-1239.92798	361.59659	805.97876	-1231.01990	373.61328	722.87524	-828.91046	408.51843	1360.57166	-745.61890	441.53226	1146.17273	-728.99036	479.28714	1040.73962	-729.61340	533.27295	914.92755	-770.24963	584.12946	830.81909	-722.49109	561.79602	818.79614	-735.60864	602.95831	757.57117	-1100.42151	462.24207	933.36365	-863.69421	451.21304	936.25201	-1058.88855	297.90640	953.27039	-909.59277	293.22116	969.75256	-1152.69385	485.43454	640.45032	-1116.79553	551.29962	476.41220	-1119.61694	542.01862	280.04688	-1083.79602	570.01398	71.09933	-1044.28186	536.04651	31.76990	-1059.49768	720.26392	53.08916	-832.17188	357.42151	644.66669	-872.30640	336.47922	467.43231	-874.91992	253.39418	291.95282	-930.35461	184.35777	87.11365	-980.71356	135.02815	64.98746	-952.11725	319.54205	30.27791	-996.00238	365.82394	1670.49670																		 
